<svg enable-background="new 0 0 237 59" height="59" viewBox="0 0 237 59" width="237" xmlns="http://www.w3.org/2000/svg"><path d="m26.512 31.978c2.242-1.392 4.58-3.986 4.58-7.544 0-6.87-6.283-8.695-14.169-8.695h-16.751v34.601h17.09c9.103 0 15.092-2.695 15.092-10.428 0-3.749-2.043-6.97-5.842-7.934zm-14.855-8.166h4.054c2.428 0 4.665.046 4.665 2.735 0 2.022-1.653 3.029-3.945 3.029h-4.773v-5.764zm5.022 18.451h-5.022v-6.392h3.658c3.652 0 6.329.196 6.329 3.219 0 2.598-2.14 3.173-4.965 3.173zm20.883-20.331h10.123v-7.11h-10.123zm0 28.407h10.123v-25.183h-10.123zm33.971-21.866c-1.806-2.451-4.676-4.04-7.744-4.04-8.373 0-11.39 6.582-11.39 12.785 0 6.44 4.037 11.919 11.095 11.919 3.658 0 5.843-1.297 7.303-2.74v2.064c0 3.603-1.167 4.906-4.088 4.906-1.019 0-1.754-.241-2.19-.627-.44-.387-.634-.821-.634-1.106h-10.173c.488 3.704 4.286 7.259 13.293 7.259 12.561 0 13.438-5.912 13.438-13.458v-20.279h-8.91zm-5.022 13.746c-2.722-.049-3.991-2.406-3.991-4.903 0-3.27.928-5.768 3.991-5.718 3.216 0 4.286 2.641 4.286 5.43 0 2.69-1.167 5.33-4.286 5.191zm46.551-10.241c2.236-1.392 4.58-3.986 4.58-7.544 0-6.87-6.283-8.695-14.175-8.695h-16.746v34.601h17.091c9.097 0 15.092-2.695 15.092-10.428-.001-3.749-2.05-6.97-5.842-7.934zm-14.849-8.166h4.036c2.439 0 4.675.046 4.675 2.735 0 2.022-1.652 3.029-3.946 3.029h-4.766v-5.764zm5.01 18.451h-5.01v-6.392h3.65c3.652 0 6.329.196 6.329 3.219 0 2.598-2.139 3.173-4.969 3.173zm34.027-17.83c-8.616 0-14.457 4.855-14.457 13.603 0 8.603 6.329 13.023 14.508 13.023 8.175 0 14.509-4.326 14.509-13.55 0-7.835-5.553-13.076-14.56-13.076zm.051 19.898c-2.582 0-4.381-2.068-4.381-6.821 0-2.837 1.026-6.348 4.478-6.348 2.627-.147 4.284 2.643 4.284 6.348 0 4.753-1.658 6.821-4.381 6.821zm45.763 2.308v-11.779c0-6.002-.73-10.427-12.805-10.427-10.076 0-13.921 3.127-13.921 8.46h9.738c.243-2.165 2.139-2.453 3.553-2.453 1.071 0 3.308.241 3.308 2.068 0 4.709-18.161-.483-18.161 10.956 0 5.241 4.286 7.595 9.107 7.595 3.8 0 6.721-.771 9.591-3.416l.488 2.695h10.471v-.484c-1.32-1.053-1.369-1.773-1.369-3.215zm-14.605-1.252c-1.998 0-3.216-.859-3.216-2.112 0-3.269 4.387-2.5 7.694-4.084.25 3.458-.922 6.196-4.478 6.196zm29.407-15.139h-.096v-5.092h-9.204v25.183h10.134v-8.701c0-5.431 2.088-7.352 6.227-7.352.685 0 1.416.19 2.096.289v-9.997c-.437-.049-.878-.145-1.315-.145-3.946 0-6.426 1.873-7.842 5.815zm28.911-2.545c-2.14-2.5-4.381-3.27-7.597-3.27-6.079 0-10.807 5.432-10.807 13.796 0 7.106 3.895 12.83 11.587 12.83 3.262 0 5.458-1.01 7.841-4.086v3.365h9.103v-34.6h-10.127zm-4.284 16.148c-3.313 0-3.993-3.076-3.993-5.72 0-2.785.924-5.96 4.286-5.96 3.357 0 4.338 3.028 4.338 5.818 0 2.933-1.129 5.862-4.631 5.862z" fill="#f03c3c"/><g fill="#8b8c8c"><path d="m145.812 9.617c-.98 0-1.695-.367-2.145-1.102h-.041l.018.492c.016.289.023.605.023.949v2.426h-.58v-9.251h.492l.111.908h.035c.438-.688 1.137-1.031 2.098-1.031.859 0 1.515.282 1.966.847s.677 1.386.677 2.464c0 1.047-.237 1.858-.712 2.435s-1.122.863-1.942.863zm-.012-.515c.652 0 1.157-.242 1.515-.727s.536-1.162.536-2.033c0-1.871-.676-2.807-2.027-2.807-.742 0-1.287.204-1.635.612s-.521 1.073-.521 1.995v.188c0 .996.167 1.707.501 2.133s.877.639 1.631.639z"/><path d="m154.097 9.5-.146-1.008h-.047c-.32.41-.649.7-.987.87s-.737.255-1.198.255c-.625 0-1.111-.16-1.459-.48s-.521-.764-.521-1.33c0-.621.259-1.104.776-1.447s1.267-.525 2.247-.545l1.213-.035v-.423c0-.605-.123-1.063-.369-1.371s-.643-.463-1.189-.463c-.59 0-1.201.164-1.834.492l-.217-.504c.699-.328 1.391-.492 2.074-.492.699 0 1.222.182 1.567.545s.519.93.519 1.699v4.237zm-2.344-.41c.68 0 1.216-.194 1.608-.583s.589-.929.589-1.62v-.627l-1.113.047c-.895.043-1.532.183-1.913.419s-.571.604-.571 1.104c0 .398.122.708.366.929s.589.331 1.034.331z"/><path d="m159.095 3.008c.27 0 .559.027.867.082l-.111.557c-.266-.066-.541-.1-.826-.1-.543 0-.988.23-1.336.691s-.521 1.043-.521 1.746v3.516h-.58v-6.369h.492l.059 1.148h.041c.262-.469.541-.798.838-.987s.655-.284 1.077-.284z"/><path d="m162.938 9.102c.367 0 .688-.031.961-.094v.469c-.281.094-.605.141-.973.141-.563 0-.978-.15-1.245-.451s-.401-.773-.401-1.418v-4.114h-.943v-.34l.943-.264.293-1.441h.299v1.541h1.869v.504h-1.869v4.031c0 .488.086.85.258 1.084s.441.352.808.352z"/><path d="m173.661 6.307c0 1.039-.252 1.851-.756 2.435s-1.199.876-2.086.876c-.559 0-1.051-.135-1.477-.404s-.752-.656-.979-1.16-.34-1.086-.34-1.746c0-1.039.252-1.849.756-2.429s1.195-.87 2.074-.87c.875 0 1.562.294 2.06.882s.748 1.392.748 2.416zm-5.027 0c0 .875.192 1.558.577 2.048s.929.735 1.632.735 1.247-.245 1.632-.735.577-1.173.577-2.048c0-.879-.194-1.561-.583-2.045s-.935-.727-1.638-.727-1.245.241-1.626.724-.571 1.165-.571 2.048z"/><path d="m177.792 3.635h-1.5v5.865h-.58v-5.865h-1.184v-.34l1.184-.217v-.492c0-.781.144-1.354.431-1.72s.757-.548 1.409-.548c.352 0 .703.053 1.055.158l-.135.504c-.313-.098-.623-.146-.932-.146-.453 0-.774.134-.964.401s-.284.702-.284 1.304v.592h1.5z"/></g><g fill="#555"><path d="m181.255 12.02c-.41 0-.768-.043-1.072-.129v-1.512c.313.078.598.117.855.117.398 0 .684-.124.855-.372s.258-.636.258-1.163v-8.027h1.816v8.016c0 1-.229 1.762-.686 2.285s-1.132.785-2.026.785z"/><path d="m189.763 2.322c-.684 0-1.213.257-1.588.771s-.563 1.229-.563 2.147c0 1.91.717 2.865 2.15 2.865.602 0 1.33-.15 2.186-.451v1.523c-.703.293-1.488.439-2.355.439-1.246 0-2.199-.378-2.859-1.134s-.99-1.841-.99-3.255c0-.891.162-1.671.486-2.341s.79-1.184 1.397-1.541 1.319-.536 2.136-.536c.832 0 1.668.201 2.508.604l-.586 1.477c-.32-.152-.643-.285-.967-.398s-.643-.17-.955-.17z"/><path d="m200.878 5.135c0 1.41-.401 2.49-1.204 3.24s-1.962 1.125-3.478 1.125h-2.426v-8.566h2.689c1.398 0 2.484.369 3.258 1.107s1.161 1.77 1.161 3.094zm-1.887.047c0-1.84-.813-2.76-2.438-2.76h-.967v5.578h.779c1.751 0 2.626-.939 2.626-2.818z"/><path d="m205.478 9.617c-1.055 0-1.879-.291-2.473-.873s-.891-1.406-.891-2.473c0-1.098.274-1.946.823-2.546s1.308-.899 2.276-.899c.926 0 1.646.264 2.162.791s.773 1.256.773 2.186v.867h-4.225c.02.508.17.904.451 1.189s.676.428 1.184.428c.395 0 .768-.041 1.119-.123s.719-.213 1.102-.393v1.383c-.313.156-.646.272-1.002.349s-.788.114-1.299.114zm-.252-5.519c-.379 0-.676.12-.891.36s-.338.581-.369 1.022h2.508c-.008-.441-.123-.782-.346-1.022s-.524-.36-.902-.36z"/><path d="m212.263 9.617c-2.039 0-3.059-1.119-3.059-3.357 0-1.113.277-1.964.832-2.552s1.35-.882 2.385-.882c.758 0 1.438.148 2.039.445l-.527 1.383c-.281-.113-.543-.206-.785-.278s-.484-.108-.727-.108c-.93 0-1.395.66-1.395 1.98 0 1.281.465 1.922 1.395 1.922.344 0 .662-.046.955-.138s.586-.235.879-.431v1.529c-.289.184-.581.311-.876.381s-.667.106-1.116.106z"/><path d="m219.933 9.5-.346-.891h-.047c-.301.379-.61.642-.929.788s-.733.22-1.245.22c-.629 0-1.124-.18-1.485-.539s-.542-.871-.542-1.535c0-.695.243-1.208.729-1.538s1.22-.513 2.2-.548l1.137-.035v-.287c0-.664-.34-.996-1.02-.996-.523 0-1.139.158-1.846.475l-.592-1.207c.754-.395 1.59-.592 2.508-.592.879 0 1.553.191 2.021.574s.703.965.703 1.746v4.365zm-.528-3.035-.691.023c-.52.016-.906.109-1.16.281s-.381.434-.381.785c0 .504.289.756.867.756.414 0 .745-.119.993-.357s.372-.555.372-.949z"/><path d="m227.661 9.5-.24-.838h-.094c-.191.305-.463.54-.814.706s-.752.249-1.201.249c-.77 0-1.35-.206-1.74-.618s-.586-1.005-.586-1.778v-4.272h1.787v3.826c0 .473.084.827.252 1.063s.436.354.803.354c.5 0 .861-.167 1.084-.501s.334-.888.334-1.661v-3.081h1.787v6.551z"/><path d="m232.249 6.154-2.109-3.205h2.027l1.271 2.086 1.283-2.086h2.027l-2.133 3.205 2.232 3.346h-2.033l-1.377-2.244-1.381 2.244h-2.027z"/></g></svg>