<svg xmlns="http://www.w3.org/2000/svg" width="63" height="48" viewBox="0 0 63 48">
  <defs>
    <style>
      .cls-1 {
        fill: #2e3139;
        fill-rule: evenodd;
      }
    </style>
  </defs>
  <path id="logo" class="cls-1" d="M89.145,66.23l-5.4,1.843h0V79.707h0Zm-5.4,1.843L80,69.546h0l3.749,10.161h0V68.073ZM114.273,82.6l-5.151,10.056h0l10.747,5.482h0Zm25.891-.094L143,66.212h0l-6.238,6.531h0ZM143,66.212l-5.4,1.926h0l-0.838,4.6h0Zm-4.1,23.538,1.26-7.242h0l-4.995-1.01h0Zm1.26-7.242-3.4-9.765h0L135.169,81.5h0Zm-1.26,7.242L135.169,81.5h0l-1.958,10.761h0ZM122.2,104.6l3.092,8.486h0l5.809-9.2h0Zm3.092,8.486,7.961-2.844h0L131.1,103.88h0Zm7.961-2.844,2.235-.761h0l-4.387-5.6h0Zm-13.381-12.1,2.328,6.46h0l8.9-.719h0Zm13.342-5.88-13.342,5.88h0L131.1,103.88h0Zm2.274,17.221L138.9,89.749h0L131.1,103.88h0ZM138.9,89.749l-5.693,2.51h0L131.1,103.88h0ZM114.273,82.6l5.6,15.538h0l5.927-9.662h0Zm-2.071-5.75,2.071,5.75h0l8.266-3.589h0Zm2.071,5.75L125.8,88.477h0l-3.257-9.466h0Zm-2.071-5.75,10.337,2.161h0L118.06,66h0Zm0,0L118.06,66h0l-8.654,3.043h0Zm-3.08,15.807L114.273,82.6h0l-4.863-2.533h0ZM114.273,82.6l-2.071-5.75h0l-2.792,3.218h0Zm-2.071-5.75-2.8-7.808h0l0,11.026h0Zm-3.08,15.807,0.288-12.589h0l-6.357,9.493h0ZM89.313,94.731L96.4,114h0l6.637-12.26h0ZM96.4,114l6.637-2.356h0v-9.9h0Zm6.65-24.439-13.74,5.17h0l13.727,7.009h0Zm6.069,3.1-6.069-3.1h0L103.04,101.74h0ZM89.145,66.23l-5.4,13.477h0l12.7,6.484h0Zm-5.4,13.477,5.565,15.025h0l7.136-8.54h0Zm5.565,15.025,13.74-5.17h0l-6.6-3.37h0Z" transform="translate(-80 -66)"/>
</svg>
