<svg xmlns="http://www.w3.org/2000/svg" width="63" height="18"><path d="M2.07 7.81l3.07 7.29 3.04-7.29 3.05 7.29 2.66-7.13 1.07-.4-4.05 10.33h-.65l-2.7-6.5-2.72 6.5h-.61L0 7.81h2.07zM19.84 18a3.843 3.843 0 0 1-1.84-.4 4.428 4.428 0 0 1-1.51-1 5.877 5.877 0 0 1-1.02-1.6 4.3 4.3 0 0 1-.38-1.8 6.688 6.688 0 0 1 .34-2.2 5.41 5.41 0 0 1 .97-1.81 4.589 4.589 0 0 1 1.5-1.16 4.472 4.472 0 0 1 1.96-.42 4.17 4.17 0 0 1 4.3 4.19h-7.21a7.163 7.163 0 0 0 .24 1.9 7.83 7.83 0 0 0 .71 1.5 2.9 2.9 0 0 0 1.08.9 2.275 2.275 0 0 0 1.38.4 4.861 4.861 0 0 0 1.21-.2 3.974 3.974 0 0 0 1.04-.6 3.163 3.163 0 0 0 .79-.8 3 3 0 0 0 .47-.9l.55.3a4.123 4.123 0 0 1-.67 1.4 4.066 4.066 0 0 1-1.08 1.2 4.618 4.618 0 0 1-2.83 1.1zm1.92-7a2.711 2.711 0 0 0-.19-1.04 2.743 2.743 0 0 0-.54-.85 2.484 2.484 0 0 0-.8-.55 2.279 2.279 0 0 0-.97-.2 1.763 1.763 0 0 0-.84.2 2.3 2.3 0 0 0-.7.55 3.12 3.12 0 0 0-.52.85 2.935 2.935 0 0 0-.24 1.04h4.8zm4.68-7.74l1.92-.72v7.13a3.829 3.829 0 0 1 .62-.8 4.659 4.659 0 0 1 .83-.65 5.057 5.057 0 0 1 .94-.45 2.857 2.857 0 0 1 .94-.16 3.523 3.523 0 0 1 1.55.35 3.764 3.764 0 0 1 1.22.95 4.582 4.582 0 0 1 .8 1.39 5.229 5.229 0 0 1 .29 1.8 5.932 5.932 0 0 1-.19 1.5 9.02 9.02 0 0 1-.54 1.5 8.738 8.738 0 0 1-.84 1.2c-.33.3-.69.6-1.09.9-.4.2-.83.4-1.3.6a6.146 6.146 0 0 1-3.46-.1 5.088 5.088 0 0 1-1.69-.9V3.26zm1.92 12.84a1.173 1.173 0 0 0 .4.4 5.032 5.032 0 0 0 .48.3 6.432 6.432 0 0 0 .59.3c.22 0 .46.1.72.1a1.814 1.814 0 0 0 1.22-.4 2.623 2.623 0 0 0 .95-.9 5.21 5.21 0 0 0 .61-1.4 7.389 7.389 0 0 0 .22-1.8 4.374 4.374 0 0 0-.22-1.4 3.67 3.67 0 0 0-.61-1.1 2.645 2.645 0 0 0-.9-.78 2.233 2.233 0 0 0-1.11-.28 2.63 2.63 0 0 0-.67.09 3.267 3.267 0 0 0-.65.26 3.966 3.966 0 0 0-.59.38 1.757 1.757 0 0 0-.44.53v5.7zm8.99-8.29h1.92v1.87a7.05 7.05 0 0 1 .84-.79 6.73 6.73 0 0 1 .95-.66 5.424 5.424 0 0 1 .99-.45 3.02 3.02 0 0 1 .94-.17 2.67 2.67 0 0 1 .87.16 3.529 3.529 0 0 1 .81.44 2.91 2.91 0 0 1 .64.67 2.064 2.064 0 0 1 .35.84 3.306 3.306 0 0 1 .66-.82 4.784 4.784 0 0 1 .93-.67 5.13 5.13 0 0 1 1.08-.45 4.132 4.132 0 0 1 1.13-.17 2.3 2.3 0 0 1 1.03.25 2.738 2.738 0 0 1 .84.68 3.4 3.4 0 0 1 .78 2.16v7.1h-1.93V11a2.5 2.5 0 0 0-.14-.8 2.711 2.711 0 0 0-.38-.63 1.816 1.816 0 0 0-.55-.45 1.4 1.4 0 0 0-.66-.16 2.921 2.921 0 0 0-.81.11 4.333 4.333 0 0 0-.78.3 3.46 3.46 0 0 0-.67.46 2.159 2.159 0 0 0-.49.57v7.4h-1.92V11a2.5 2.5 0 0 0-.14-.8 2.711 2.711 0 0 0-.38-.63 1.854 1.854 0 0 0-.56-.45 1.4 1.4 0 0 0-.66-.16 2.653 2.653 0 0 0-.77.11 3.57 3.57 0 0 0-.76.31 4.1 4.1 0 0 0-.69.45 2.949 2.949 0 0 0-.55.57v7.4h-1.92V7.81zm17.92-4.9a1.07 1.07 0 0 1 .43.09.935.935 0 0 1 .35.21 1.076 1.076 0 0 1 .24.32.758.758 0 0 1 .09.38.748.748 0 0 1-.09.39 1.176 1.176 0 0 1-.24.31.952.952 0 0 1-.35.22 1.251 1.251 0 0 1-.43.07 1.234 1.234 0 0 1-.42-.07 1.152 1.152 0 0 1-.35-.22 1.176 1.176 0 0 1-.24-.31.86.86 0 0 1-.09-.39.881.881 0 0 1 .09-.38 1.076 1.076 0 0 1 .24-.32 1.126 1.126 0 0 1 .35-.21 1.059 1.059 0 0 1 .42-.09zm-.94 5.27l1.91-.73V17.8h-1.91V8.18zm5.72 9.62h-1.92L61.08.71 63 0z" fill-rule="evenodd"/></svg>