<?xml version="1.0" standalone="no"?>
<!DOCTYPE svg PUBLIC "-//W3C//DTD SVG 20010904//EN"
 "http://www.w3.org/TR/2001/REC-SVG-20010904/DTD/svg10.dtd">
<svg version="1.0" xmlns="http://www.w3.org/2000/svg"
 width="1536.000000pt" height="1536.000000pt" viewBox="0 0 1536.000000 1536.000000"
 preserveAspectRatio="xMidYMid meet">
<metadata>
Created by potrace 1.11, written by Peter Selinger 2001-2013
</metadata>
<g transform="translate(0.000000,1536.000000) scale(0.100000,-0.100000)"
fill="#000000" stroke="none">
<path d="M9225 13321 c-27 -10 -95 -32 -150 -50 -55 -18 -109 -37 -120 -42
-11 -4 -108 -37 -215 -73 -107 -36 -249 -84 -315 -107 -66 -22 -124 -42 -130
-44 -5 -1 -17 -5 -25 -8 -8 -3 -51 -18 -95 -32 -44 -15 -87 -30 -95 -33 -8 -3
-19 -6 -25 -8 -5 -1 -64 -21 -130 -44 -66 -23 -124 -43 -130 -45 -5 -1 -17 -5
-25 -8 -8 -4 -62 -22 -120 -41 -58 -20 -159 -54 -225 -77 -66 -23 -124 -42
-130 -44 -5 -1 -23 -7 -40 -14 -16 -7 -42 -15 -57 -18 l-28 -5 0 -1304 0
-1303 -93 -133 c-50 -73 -101 -146 -111 -163 -11 -16 -23 -34 -28 -40 -5 -5
-79 -112 -166 -238 -86 -125 -218 -315 -292 -423 -74 -107 -155 -224 -180
-259 -25 -35 -64 -93 -88 -127 -24 -35 -109 -157 -189 -273 -80 -115 -184
-266 -231 -335 -138 -201 -166 -239 -176 -240 -5 0 -120 55 -255 122 -135 66
-460 226 -721 355 -633 312 -620 305 -629 317 -4 6 -27 63 -51 126 -24 63 -51
138 -62 165 -11 28 -34 91 -53 140 -18 50 -90 241 -160 425 -149 394 -202 534
-336 890 -55 146 -104 274 -109 285 -5 11 -41 106 -80 210 -39 105 -77 205
-85 223 -8 18 -15 36 -15 41 0 5 -8 26 -17 47 -9 22 -18 44 -19 50 -1 6 -9 27
-17 45 -9 19 -23 54 -31 79 -8 25 -61 164 -116 310 -56 146 -112 294 -125 330
-13 36 -33 88 -43 115 -11 28 -47 124 -81 215 -34 91 -66 174 -71 185 -5 11
-38 99 -74 195 -36 96 -97 258 -136 360 -38 102 -77 203 -85 226 l-15 40 -200
-67 c-111 -37 -203 -67 -205 -68 -12 -4 -58 -19 -460 -151 -365 -120 -676
-229 -775 -272 -14 -6 -29 -13 -35 -14 -5 -2 -82 -30 -170 -64 -88 -34 -182
-70 -210 -80 -129 -48 -170 -68 -167 -81 2 -8 33 -90 68 -184 36 -93 67 -174
68 -180 2 -5 9 -23 15 -40 7 -16 39 -100 71 -185 32 -85 80 -209 105 -275 26
-66 51 -133 57 -150 5 -16 16 -43 23 -60 6 -16 21 -55 33 -85 11 -30 32 -84
45 -120 26 -67 126 -330 157 -410 9 -25 63 -166 120 -315 57 -148 108 -285
115 -302 6 -18 14 -36 18 -39 4 -4 7 -13 7 -19 0 -7 8 -30 17 -51 9 -22 17
-41 18 -44 0 -4 13 -39 35 -95 4 -11 14 -38 23 -60 8 -22 27 -69 40 -105 14
-36 49 -126 77 -200 28 -74 55 -144 59 -155 8 -18 90 -233 193 -505 22 -58 43
-114 48 -125 13 -32 79 -207 85 -225 1 -3 6 -16 13 -30 6 -14 47 -122 92 -240
44 -118 85 -224 89 -235 13 -29 36 -89 36 -95 1 -3 9 -22 18 -44 9 -21 17 -40
17 -43 0 -4 176 -466 190 -498 5 -11 22 -56 39 -100 17 -44 74 -192 127 -330
52 -137 97 -254 98 -260 2 -5 9 -23 16 -40 6 -16 16 -41 20 -55 5 -14 41 -108
80 -210 66 -171 126 -328 187 -490 14 -36 29 -78 35 -95 5 -16 17 -45 25 -63
14 -32 61 -156 67 -177 2 -5 7 -21 13 -35 6 -14 19 -50 31 -80 11 -30 26 -68
33 -85 7 -16 13 -32 13 -35 2 -7 26 -70 37 -95 5 -11 33 -85 63 -165 30 -80
77 -206 106 -280 28 -74 55 -146 60 -160 4 -14 23 -65 43 -115 19 -49 72 -187
116 -305 45 -118 88 -231 96 -250 8 -19 51 -132 96 -250 143 -380 187 -494
197 -520 6 -14 42 -108 81 -210 104 -277 155 -412 248 -655 47 -121 89 -234
94 -252 5 -18 13 -34 17 -37 7 -4 55 12 612 204 162 56 320 110 350 120 191
64 643 220 649 225 5 2 8 529 8 1170 l0 1165 59 85 c61 88 170 247 354 513 58
84 125 182 150 217 50 71 66 93 222 320 168 243 369 532 419 603 24 35 51 74
59 87 8 13 29 42 46 66 17 24 57 82 89 129 94 137 69 132 231 51 76 -38 290
-143 474 -234 184 -91 538 -265 785 -387 248 -122 554 -273 680 -335 127 -62
298 -146 382 -188 l152 -76 34 52 c62 96 123 191 237 372 62 99 119 189 127
200 8 11 50 76 93 145 43 69 135 215 205 325 70 110 132 209 138 220 7 11 14
22 17 25 3 3 10 13 15 22 6 10 60 95 120 190 61 95 111 179 113 185 2 7 7 13
11 13 3 0 20 25 36 55 17 30 33 55 38 55 4 0 7 4 7 10 0 5 29 53 64 107 35 54
93 145 128 202 62 98 65 105 52 130 -8 14 -14 30 -14 35 0 5 -25 79 -56 165
-30 86 -68 192 -84 236 -96 269 -134 377 -155 435 -13 36 -49 137 -80 225 -31
88 -59 167 -62 175 -4 8 -7 17 -7 20 -1 3 -7 19 -13 35 -6 17 -28 77 -48 135
-39 110 -120 338 -160 450 -21 57 -126 353 -216 610 -17 47 -39 108 -49 135
-22 60 -281 787 -321 900 -15 44 -57 163 -94 265 -36 102 -67 190 -69 195 -2
6 -6 17 -9 25 -3 8 -56 157 -117 330 -61 173 -120 338 -130 365 -26 68 -115
320 -152 430 -17 50 -33 93 -37 97 -3 4 -28 -1 -56 -11z"/>
<path d="M15338 13285 c-4 -4 -454 -161 -573 -200 -56 -19 -482 -166 -590
-205 -49 -18 -99 -34 -111 -37 -18 -4 -24 -20 -42 -121 -47 -250 -92 -493
-117 -622 -15 -74 -28 -144 -29 -155 -4 -23 -27 -145 -41 -215 -2 -14 -7 -36
-9 -50 -3 -14 -16 -86 -30 -160 -14 -74 -27 -146 -29 -160 -10 -54 -50 -263
-67 -345 -5 -27 -12 -63 -15 -80 -2 -16 -7 -41 -10 -55 -2 -14 -7 -38 -10 -55
-3 -16 -12 -66 -21 -110 -8 -44 -19 -102 -24 -130 -5 -27 -16 -88 -25 -135
-10 -47 -18 -94 -20 -105 -1 -11 -7 -45 -13 -75 -7 -30 -14 -68 -17 -85 -2
-16 -9 -55 -15 -85 -7 -30 -14 -68 -17 -85 -2 -16 -25 -133 -49 -260 -25 -126
-47 -246 -50 -265 -3 -19 -7 -43 -10 -53 -3 -10 -7 -30 -9 -46 -2 -15 -14 -79
-26 -142 -12 -63 -23 -123 -25 -134 -1 -11 -5 -31 -9 -45 -3 -14 -7 -38 -10
-55 -3 -16 -8 -41 -10 -55 -3 -14 -7 -36 -10 -50 -3 -14 -7 -36 -10 -50 -3
-14 -7 -38 -10 -55 -2 -16 -14 -77 -25 -135 -12 -58 -23 -116 -25 -130 -5 -33
-22 -124 -90 -480 -31 -162 -58 -306 -60 -320 -2 -14 -20 -108 -39 -210 -19
-102 -37 -198 -40 -214 -9 -49 -27 -140 -32 -157 -2 -8 -30 -26 -62 -39 -31
-12 -75 -31 -97 -40 -22 -10 -69 -30 -105 -45 -36 -15 -89 -38 -118 -51 -29
-13 -55 -24 -57 -24 -2 0 -28 -11 -57 -24 -30 -14 -78 -34 -107 -46 -30 -11
-73 -29 -95 -39 -23 -10 -131 -57 -241 -104 -110 -47 -218 -93 -240 -102 -22
-10 -44 -19 -50 -21 -8 -2 -190 -80 -300 -129 -16 -7 -59 -25 -95 -40 -67 -28
-131 -56 -187 -81 -17 -8 -34 -14 -37 -14 -3 0 -35 -13 -71 -30 -36 -16 -68
-30 -70 -30 -3 0 -24 -9 -48 -19 -62 -29 -230 -102 -242 -105 -11 -3 -65 -27
-143 -62 -29 -13 -55 -24 -58 -24 -3 0 -31 -12 -62 -26 -31 -14 -67 -30 -78
-34 -68 -27 -620 -263 -625 -269 -6 -5 45 -158 71 -216 6 -11 23 -58 40 -105
17 -47 34 -94 39 -105 5 -11 18 -45 29 -75 11 -30 45 -125 77 -210 32 -85 64
-171 71 -190 11 -31 152 -407 458 -1225 48 -126 93 -246 101 -265 26 -66 135
-357 135 -362 0 -3 8 -23 17 -44 9 -22 18 -43 19 -49 4 -14 144 -386 154 -410
5 -11 19 -47 31 -80 11 -33 27 -73 34 -90 7 -16 17 -42 20 -58 4 -15 11 -30
16 -33 5 -3 102 27 217 66 114 40 277 96 362 125 85 30 247 86 360 125 113 39
237 82 275 95 39 13 169 58 290 100 338 118 509 176 525 180 8 2 62 20 120 40
58 19 112 37 120 39 8 3 60 20 115 38 l100 33 12 55 c7 30 14 71 17 90 3 19
16 98 31 175 14 77 34 190 45 250 10 61 30 171 44 245 13 74 27 151 30 170 3
19 8 46 10 60 3 14 14 77 26 140 11 63 22 126 25 140 10 51 26 142 30 168 6
40 24 141 35 192 6 25 12 61 14 80 3 19 18 107 35 195 16 88 32 180 36 205 3
25 8 52 10 60 3 8 13 65 24 125 22 125 68 387 76 425 18 97 47 258 49 275 2
11 13 74 25 140 12 66 24 131 26 145 8 48 36 206 56 310 11 58 22 117 24 132
2 14 22 127 44 250 22 123 42 237 45 253 3 17 21 116 40 220 19 105 37 208 40
230 4 22 8 47 11 55 2 8 6 31 9 50 3 19 8 49 11 65 25 134 65 357 70 385 8 49
17 101 21 125 20 106 75 408 79 435 3 19 10 58 15 85 19 96 51 270 55 297 4
29 95 539 150 838 19 102 45 250 59 330 25 139 29 163 41 220 2 14 7 41 10 60
3 19 21 121 40 225 19 105 37 204 40 220 2 17 7 41 10 55 35 194 58 320 60
340 2 14 7 39 10 55 7 31 59 323 70 385 3 19 8 42 10 50 2 8 7 35 10 60 4 25
15 90 25 145 11 55 26 138 34 185 8 47 25 137 36 200 12 63 23 127 25 142 2
15 6 35 9 45 3 10 8 36 11 58 3 23 8 52 11 65 3 14 14 75 24 135 11 61 22 122
26 138 5 24 -4 36 -18 22z"/>
</g>
</svg>
